<svg id="Layer_1" data-name="Layer 1" xmlns="http://www.w3.org/2000/svg" viewBox="0 0 1440 436.77"><defs><style>.cls-1,.cls-2,.cls-3,.cls-4,.cls-5,.cls-6,.cls-7{fill:none;stroke-miterlimit:10;}.cls-1{stroke:#0082cb;}.cls-1,.cls-2,.cls-4,.cls-5,.cls-7{stroke-width:2px;}.cls-2,.cls-6{stroke:#4099d2;}.cls-3{stroke:#62b7de;stroke-width:0.75px;}.cls-4{stroke:#b0e7fb;}.cls-5,.cls-7{stroke:#e4773e;stroke-linecap:round;}.cls-7{stroke-dasharray:1 5;}.cls-8{fill:#e4773e;}</style></defs><title>intro_01</title><circle class="cls-1" cx="350.35" cy="182.08" r="17.39"/><line class="cls-1" x1="350.35" y1="182.08" x2="350.35" y2="221.83"/><path class="cls-1" d="M357.81,182.08a7.46,7.46,0,0,1-14.91,0"/><circle class="cls-1" cx="328.79" cy="199.75" r="8.69"/><line class="cls-1" x1="328.79" y1="201.96" x2="328.79" y2="221.83"/><path class="cls-1" d="M332.51,199.75a3.73,3.73,0,0,1-7.45,0"/><rect class="cls-1" x="789.99" y="79.76" width="59.87" height="142.76"/><rect class="cls-1" x="849.86" y="119.08" width="25.21" height="103.44"/><line class="cls-1" x1="834.1" y1="205.18" x2="834.1" y2="222.51"/><line class="cls-1" x1="802.6" y1="205.18" x2="837.26" y2="205.18"/><line class="cls-1" x1="805.75" y1="222.51" x2="805.75" y2="205.18"/><line class="cls-1" x1="819.93" y1="205.18" x2="819.93" y2="222.51"/><rect class="cls-1" x="799.44" y="134.29" width="9.45" height="9.45"/><rect class="cls-1" x="815.2" y="134.29" width="9.45" height="9.45"/><rect class="cls-1" x="830.95" y="134.29" width="9.45" height="9.45"/><rect class="cls-1" x="799.44" y="151.62" width="9.45" height="9.45"/><rect class="cls-1" x="815.2" y="151.62" width="9.45" height="9.45"/><rect class="cls-1" x="830.95" y="151.62" width="9.45" height="9.45"/><rect class="cls-1" x="799.44" y="168.95" width="9.45" height="9.45"/><rect class="cls-1" x="815.2" y="168.95" width="9.45" height="9.45"/><rect class="cls-1" x="830.95" y="168.95" width="9.45" height="9.45"/><rect class="cls-1" x="799.44" y="186.28" width="9.45" height="9.45"/><rect class="cls-1" x="815.2" y="186.28" width="9.45" height="9.45"/><rect class="cls-1" x="830.95" y="186.28" width="9.45" height="9.45"/><rect class="cls-1" x="857.74" y="168.95" width="9.45" height="9.45"/><rect class="cls-1" x="857.74" y="186.28" width="9.45" height="9.45"/><rect class="cls-1" x="857.74" y="203.61" width="9.45" height="9.45"/><line class="cls-1" x1="729.2" y1="185.7" x2="782.89" y2="185.7"/><line class="cls-1" x1="729.2" y1="196.44" x2="782.89" y2="196.44"/><polyline class="cls-1" points="789.02 222.51 789.02 136.62 782.89 136.62 729.2 136.62 723.07 136.62 723.07 192.45"/><line class="cls-1" x1="723.07" y1="222.51" x2="723.07" y2="203.49"/><polyline class="cls-1" points="729.2 222.51 729.2 142.76 782.89 142.76 782.89 222.51"/><rect class="cls-1" x="729.2" y="127.42" width="53.68" height="9.2"/><line class="cls-1" x1="729.2" y1="153.49" x2="782.89" y2="153.49"/><line class="cls-1" x1="729.2" y1="164.23" x2="782.89" y2="164.23"/><line class="cls-1" x1="729.2" y1="174.97" x2="782.89" y2="174.97"/><line class="cls-1" x1="729.2" y1="207.18" x2="782.89" y2="207.18"/><circle class="cls-1" cx="713.87" cy="197.97" r="10.74"/><line class="cls-1" x1="713.87" y1="197.97" x2="713.87" y2="222.51"/><path class="cls-1" d="M718.47,198a4.61,4.61,0,0,1-9.21,0"/><rect class="cls-1" x="1273.83" y="188.88" width="61.33" height="33.63"/><polyline class="cls-1" points="1273.83 188.88 1287.68 175.03 1321.32 175.03 1335.16 188.88"/><rect class="cls-1" x="1284.74" y="204.17" width="8.73" height="18.35"/><rect class="cls-1" x="1305.97" y="197.33" width="22.11" height="12.66"/><polyline class="cls-1" points="723.07 150.49 703.13 150.49 703.13 109.06 646.06 109.06 646.06 173.67"/><circle class="cls-1" cx="1166.13" cy="181.81" r="17.39"/><line class="cls-1" x1="1166.13" y1="181.81" x2="1166.13" y2="221.55"/><path class="cls-1" d="M1173.58,181.81a7.45,7.45,0,1,1-14.9,0"/><circle class="cls-1" cx="1144.56" cy="199.47" r="8.69"/><line class="cls-1" x1="1144.56" y1="201.68" x2="1144.56" y2="221.55"/><path class="cls-1" d="M1148.29,199.47a3.73,3.73,0,1,1-7.45,0"/><rect class="cls-1" x="1253.93" y="197.33" width="12.59" height="12.59"/><line class="cls-1" x1="1260.23" y1="197.33" x2="1260.23" y2="209.92"/><line class="cls-1" x1="1267.78" y1="209.92" x2="1252.67" y2="209.92"/><rect class="cls-1" x="1213.63" y="197.33" width="12.59" height="12.59"/><rect class="cls-1" x="1231.26" y="197.33" width="17.63" height="25.19"/><line class="cls-1" x1="1219.93" y1="197.33" x2="1219.93" y2="209.92"/><line class="cls-1" x1="1227.49" y1="209.92" x2="1212.37" y2="209.92"/><rect class="cls-1" x="1253.93" y="170.26" width="12.59" height="12.59"/><line class="cls-1" x1="1260.23" y1="170.26" x2="1260.23" y2="182.85"/><line class="cls-1" x1="1267.78" y1="182.85" x2="1252.67" y2="182.85"/><rect class="cls-1" x="1213.63" y="170.26" width="12.59" height="12.59"/><line class="cls-1" x1="1219.93" y1="170.26" x2="1219.93" y2="182.85"/><line class="cls-1" x1="1227.49" y1="182.85" x2="1212.37" y2="182.85"/><rect class="cls-1" x="1233.78" y="170.26" width="12.59" height="12.59"/><line class="cls-1" x1="1240.08" y1="170.26" x2="1240.08" y2="182.85"/><line class="cls-1" x1="1247.64" y1="182.85" x2="1232.52" y2="182.85"/><line class="cls-1" x1="1274.08" y1="190.41" x2="1206.08" y2="190.41"/><line class="cls-1" x1="1280.37" y1="155.14" x2="1199.79" y2="155.14"/><line class="cls-1" x1="1274.71" y1="162.53" x2="1205.45" y2="162.53"/><rect class="cls-1" x="1206.08" y="155.14" width="68" height="67.37"/><circle class="cls-1" cx="1236.3" cy="209.92" r="0.06"/><rect class="cls-1" x="264.21" y="201.18" width="27.43" height="21.33"/><line class="cls-1" x1="277.93" y1="201.18" x2="277.93" y2="222.51"/><circle class="cls-1" cx="273.36" cy="213.37" r="0.08"/><circle class="cls-1" cx="282.5" cy="213.37" r="0.08"/><line class="cls-1" x1="255.07" y1="173.76" x2="255.07" y2="185.95"/><line class="cls-1" x1="264.21" y1="173.76" x2="264.21" y2="185.95"/><rect class="cls-1" x="245.93" y="173.76" width="27.43" height="12.19"/><rect class="cls-1" x="245.93" y="185.95" width="27.43" height="9.14"/><line class="cls-1" x1="291.64" y1="173.76" x2="291.64" y2="185.95"/><line class="cls-1" x1="300.78" y1="173.76" x2="300.78" y2="185.95"/><rect class="cls-1" x="282.5" y="173.76" width="27.43" height="12.19"/><rect class="cls-1" x="282.5" y="185.95" width="27.43" height="9.14"/><line class="cls-1" x1="255.07" y1="146.33" x2="255.07" y2="158.52"/><line class="cls-1" x1="264.21" y1="146.33" x2="264.21" y2="158.52"/><rect class="cls-1" x="245.93" y="146.33" width="27.43" height="12.19"/><rect class="cls-1" x="245.93" y="158.52" width="27.43" height="9.14"/><line class="cls-1" x1="291.64" y1="146.33" x2="291.64" y2="158.52"/><line class="cls-1" x1="300.78" y1="146.33" x2="300.78" y2="158.52"/><rect class="cls-1" x="282.5" y="146.33" width="27.43" height="12.19"/><rect class="cls-1" x="282.5" y="158.52" width="27.43" height="9.14"/><line class="cls-1" x1="319.07" y1="134.14" x2="236.79" y2="134.14"/><rect class="cls-1" x="239.84" y="134.14" width="76.18" height="88.37"/><rect class="cls-1" x="156.46" y="198.14" width="15.24" height="24.38"/><rect class="cls-1" x="187.24" y="198.14" width="26.82" height="24.38"/><line class="cls-1" x1="177.79" y1="222.51" x2="177.79" y2="141.76"/><polyline class="cls-1" points="223.5 164.62 223.5 222.51 147.32 222.51 147.32 195.09"/><circle class="cls-1" cx="161.03" cy="210.32" r="0.08"/><line class="cls-1" x1="200.64" y1="164.61" x2="200.64" y2="179.85"/><line class="cls-1" x1="208.26" y1="172.23" x2="193.03" y2="172.23"/><circle class="cls-1" cx="200.64" cy="172.23" r="7.62"/><polygon class="cls-1" points="223.5 161.57 174.74 140.24 174.74 134.14 229.59 158.52 229.59 164.62 223.5 164.62 223.5 161.57"/><polygon class="cls-1" points="177.79 181.38 147.32 192.04 147.32 195.09 141.22 195.09 141.22 188.99 177.79 175.28 177.79 181.38"/><line class="cls-1" x1="1083.19" y1="217.65" x2="1104.27" y2="217.65"/><path class="cls-1" d="M1075.09,207.92a4.87,4.87,0,0,0-4.87,4.87h0a4.87,4.87,0,0,0,4.87,4.86h0"/><circle class="cls-1" cx="1079.14" cy="218.46" r="4.05"/><circle class="cls-1" cx="1079.14" cy="218.46" r="0.81"/><circle class="cls-1" cx="1108.32" cy="218.46" r="0.81"/><circle class="cls-1" cx="1108.32" cy="218.46" r="4.05"/><path class="cls-1" d="M1075.09,207.92h0a7.48,7.48,0,0,0,4.4-1.43l4.81-3.5a8.11,8.11,0,0,1,4.77-1.55h6.4a8.17,8.17,0,0,1,4.3,1.23c1.4.88,3.57,2.26,6.66,4.24a10.32,10.32,0,0,0,3.81,1.47l3.93.65a3.68,3.68,0,0,1,3.07,3.63v1.75a3.25,3.25,0,0,1-3.25,3.24h-1.62"/><line class="cls-1" x1="64.54" y1="217.65" x2="85.61" y2="217.65"/><path class="cls-1" d="M56.43,207.92a4.87,4.87,0,0,0-4.86,4.87h0a4.87,4.87,0,0,0,4.86,4.86h0"/><circle class="cls-1" cx="60.49" cy="218.46" r="4.05"/><circle class="cls-1" cx="60.49" cy="218.46" r="0.81"/><circle class="cls-1" cx="89.66" cy="218.46" r="0.81"/><circle class="cls-1" cx="89.66" cy="218.46" r="4.05"/><path class="cls-1" d="M56.43,207.92h0a7.48,7.48,0,0,0,4.4-1.43l4.82-3.5a8.07,8.07,0,0,1,4.77-1.55h6.4a8.17,8.17,0,0,1,4.3,1.23c1.39.88,3.57,2.26,6.66,4.24a10.18,10.18,0,0,0,3.81,1.47l3.92.65a3.68,3.68,0,0,1,3.07,3.63v1.75a3.24,3.24,0,0,1-3.24,3.24H93.72"/><path class="cls-1" d="M289.29,83.53a29.89,29.89,0,0,0-30.06-29.71l-.45,0a52.93,52.93,0,0,0-105.34,5.28A29.88,29.88,0,0,0,107.66,84.6"/><path class="cls-1" d="M1097.43,79.28a31,31,0,0,0-31.17-30.8h-.47A54.88,54.88,0,0,0,956.57,54a31,31,0,0,0-47.46,26.42"/><path class="cls-1" d="M1354.88,63.87a10.11,10.11,0,0,0-10.16-10h-.15A17.9,17.9,0,0,0,1309,55.61a10.1,10.1,0,0,0-15.48,8.62"/><path class="cls-1" d="M425.37,100.13a11.33,11.33,0,0,1,11.26-11.4h.17a20.07,20.07,0,0,1,40,1.53"/><path class="cls-1" d="M470,104a15.94,15.94,0,0,1,15.84-16h.24a28.23,28.23,0,0,1,56.21,2.16"/><line class="cls-2" x1="0.88" y1="236.24" x2="1440.88" y2="236.24"/><path class="cls-1" d="M.88,333.23c14.12,0,14.12,4,28.24,4s14.11-4,28.23-4,14.12,4,28.23,4,14.12-4,28.24-4,14.11,4,28.23,4,14.12-4,28.23-4,14.12,4,28.24,4,14.11-4,28.23-4,14.12,4,28.23,4,14.12-4,28.24-4,14.12,4,28.23,4,14.12-4,28.24-4,14.11,4,28.23,4,14.12-4,28.24-4,14.11,4,28.23,4,14.12-4,28.24-4,14.11,4,28.23,4,14.12-4,28.23-4,14.12,4,28.24,4,14.11-4,28.23-4,14.12,4,28.24,4,14.12-4,28.23-4,14.12,4,28.23,4,14.12-4,28.24-4,14.11,4,28.23,4,14.11-4,28.23-4,14.12,4,28.23,4,14.12-4,28.23-4,14.12,4,28.24,4,14.12-4,28.24-4,14.11,4,28.23,4,14.12-4,28.23-4,14.12,4,28.24,4,14.11-4,28.23-4,14.12,4,28.24,4,14.12-4,28.23-4,14.12,4,28.24,4,14.12-4,28.24-4,14.12,4,28.23,4,14.12-4,28.24-4,14.12,4,28.24,4,14.12-4,28.24-4,14.11,4,28.23,4,14.12-4,28.23-4,14.12,4,28.24,4,14.12-4,28.24-4,14.12,4,28.24,4,14.12-4,28.24-4,14.12,4,28.24,4,14.13-4,28.25-4,14.12,4,28.24,4"/><rect class="cls-1" x="503.91" y="197.33" width="12.59" height="12.59"/><line class="cls-1" x1="511.47" y1="164.59" x2="511.47" y2="169.62"/><line class="cls-1" x1="519.02" y1="174.66" x2="519.02" y2="164.59"/><rect class="cls-1" x="510.21" y="159.55" width="10.07" height="5.04"/><line class="cls-1" x1="510.21" y1="197.33" x2="510.21" y2="209.92"/><line class="cls-1" x1="517.77" y1="209.92" x2="502.65" y2="209.92"/><rect class="cls-1" x="463.62" y="197.33" width="12.59" height="12.59"/><rect class="cls-1" x="481.25" y="197.33" width="17.63" height="25.19"/><line class="cls-1" x1="469.91" y1="197.33" x2="469.91" y2="209.92"/><line class="cls-1" x1="476.21" y1="202.37" x2="463.62" y2="202.37"/><line class="cls-1" x1="516.51" y1="202.37" x2="503.91" y2="202.37"/><line class="cls-1" x1="477.47" y1="209.92" x2="462.36" y2="209.92"/><line class="cls-1" x1="481.25" y1="217.48" x2="456.06" y2="217.48"/><line class="cls-1" x1="524.06" y1="187.25" x2="456.06" y2="187.25"/><line class="cls-1" x1="524.06" y1="217.48" x2="498.88" y2="217.48"/><rect class="cls-1" x="456.06" y="182.22" width="68" height="40.3"/><polygon class="cls-1" points="453.54 182.22 466.13 169.62 513.99 169.62 526.58 182.22 453.54 182.22"/><circle class="cls-1" cx="486.28" cy="209.92" r="0.06"/><polygon class="cls-1" points="1055.92 174.66 1055.92 222.51 992.96 222.51 992.96 174.66 987.92 174.66 987.92 169.62 1024.44 154.51 1060.96 169.62 1060.96 174.66 1055.92 174.66"/><line class="cls-1" x1="1047.11" y1="157.03" x2="1047.11" y2="163.89"/><line class="cls-1" x1="1054.67" y1="167.02" x2="1054.67" y2="157.03"/><rect class="cls-1" x="1045.85" y="151.99" width="10.07" height="5.04"/><rect class="cls-1" x="1038.29" y="192.29" width="12.59" height="12.59"/><line class="cls-1" x1="1044.59" y1="192.29" x2="1044.59" y2="204.88"/><line class="cls-1" x1="1052.15" y1="204.88" x2="1037.04" y2="204.88"/><rect class="cls-1" x="998" y="192.29" width="12.59" height="12.59"/><rect class="cls-1" x="1015.63" y="192.29" width="17.63" height="30.22"/><line class="cls-1" x1="1004.29" y1="192.29" x2="1004.29" y2="204.88"/><line class="cls-1" x1="1011.85" y1="204.88" x2="996.74" y2="204.88"/><circle class="cls-1" cx="1020.66" cy="207.4" r="0.06"/><rect class="cls-1" x="391.48" y="207.42" width="10.07" height="15.11"/><circle class="cls-1" cx="395.26" cy="214.97" r="0.06"/><circle class="cls-1" cx="396.5" cy="193.56" r="3.78"/><polygon class="cls-1" points="414.13 187.26 414.15 222.52 378.89 222.54 378.87 187.28 376.35 187.28 376.35 182.24 396.49 172.16 416.65 182.22 416.65 187.26 414.13 187.26"/><line class="cls-1" x1="386.42" y1="172.16" x2="386.42" y2="177.2"/><line class="cls-1" x1="381.38" y1="179.68" x2="381.38" y2="172.16"/><rect class="cls-1" x="380.12" y="167.13" width="7.56" height="5.04"/><rect class="cls-1" x="414.14" y="197.32" width="32.74" height="25.19"/><rect class="cls-1" x="419.18" y="202.36" width="22.67" height="20.15"/><line class="cls-3" x1="441.85" y1="207.39" x2="419.18" y2="207.4"/><line class="cls-3" x1="441.85" y1="212.43" x2="419.18" y2="212.44"/><line class="cls-3" x1="441.85" y1="217.47" x2="419.18" y2="217.48"/><line class="cls-1" x1="446.88" y1="197.31" x2="446.87" y2="192.28"/><line class="cls-1" x1="448.76" y1="192.28" x2="414.13" y2="192.3"/><rect class="cls-1" x="937.18" y="207.4" width="10.07" height="15.11"/><circle class="cls-1" cx="940.96" cy="214.96" r="0.06"/><circle class="cls-1" cx="942.22" cy="193.55" r="3.78"/><polygon class="cls-1" points="959.85 187.25 959.85 222.51 924.59 222.51 924.59 187.25 922.07 187.25 922.07 182.22 942.22 172.14 962.37 182.22 962.37 187.25 959.85 187.25"/><line class="cls-1" x1="932.14" y1="172.14" x2="932.14" y2="177.18"/><line class="cls-1" x1="927.11" y1="179.66" x2="927.11" y2="172.14"/><rect class="cls-1" x="925.85" y="167.11" width="7.56" height="5.04"/><rect class="cls-1" x="959.85" y="197.33" width="32.74" height="25.19"/><rect class="cls-1" x="964.89" y="202.37" width="22.67" height="20.15"/><line class="cls-3" x1="987.55" y1="207.4" x2="964.89" y2="207.4"/><line class="cls-3" x1="987.55" y1="212.44" x2="964.89" y2="212.44"/><line class="cls-3" x1="987.55" y1="217.48" x2="964.89" y2="217.48"/><line class="cls-1" x1="992.59" y1="197.33" x2="992.59" y2="192.29"/><line class="cls-1" x1="994.48" y1="192.29" x2="959.85" y2="192.29"/><rect class="cls-1" x="670.5" y="169.62" width="7.56" height="10.07"/><line class="cls-1" x1="679.32" y1="179.7" x2="669.24" y2="179.7"/><line class="cls-1" x1="630.2" y1="172.14" x2="630.2" y2="177.18"/><line class="cls-1" x1="625.17" y1="179.66" x2="625.17" y2="172.14"/><rect class="cls-1" x="623.91" y="167.11" width="7.56" height="5.04"/><line class="cls-1" x1="657.91" y1="180.9" x2="657.91" y2="164.59"/><rect class="cls-1" x="635.24" y="207.4" width="10.07" height="15.11"/><circle class="cls-1" cx="639.02" cy="214.96" r="0.06"/><circle class="cls-1" cx="640.28" cy="193.55" r="3.78"/><polygon class="cls-1" points="657.91 187.25 657.91 222.51 622.65 222.51 622.65 187.25 620.13 187.25 620.13 182.22 640.28 172.14 660.43 182.22 660.43 187.25 657.91 187.25"/><polyline class="cls-1" points="659.24 164.59 655.39 164.59 655.39 159.55 674.28 149.47 693.17 159.55 693.17 164.59 690.65 164.59 690.65 197.33"/><rect class="cls-1" x="657.91" y="197.33" width="32.74" height="25.19"/><line class="cls-1" x1="690.65" y1="192.29" x2="657.91" y2="192.29"/><rect class="cls-1" x="662.94" y="202.37" width="22.67" height="20.15"/><line class="cls-3" x1="685.61" y1="207.4" x2="662.94" y2="207.4"/><line class="cls-3" x1="685.61" y1="212.44" x2="662.94" y2="212.44"/><line class="cls-3" x1="685.61" y1="217.48" x2="662.94" y2="217.48"/><line class="cls-2" x1="0.88" y1="222.51" x2="1440.88" y2="222.51"/><line class="cls-4" x1="132.87" y1="99.3" x2="117.12" y2="115.23"/><line class="cls-4" x1="159.89" y1="112.96" x2="153.36" y2="119.57"/><line class="cls-4" x1="988.97" y1="92.24" x2="941.06" y2="140.71"/><line class="cls-4" x1="137.5" y1="122.14" x2="112.79" y2="147.15"/><line class="cls-4" x1="1003.27" y1="98.5" x2="977.65" y2="124.42"/><line class="cls-4" x1="957.76" y1="99.91" x2="947.96" y2="109.82"/><line class="cls-4" x1="1319.7" y1="73.58" x2="1307.75" y2="85.68"/><line class="cls-4" x1="1347.39" y1="83.92" x2="1342.42" y2="88.94"/><line class="cls-4" x1="1323.22" y1="90.93" x2="1304.45" y2="109.92"/><line class="cls-4" x1="513.58" y1="103.77" x2="470.78" y2="147.07"/><line class="cls-4" x1="526.11" y1="109.69" x2="505.69" y2="130.35"/><line class="cls-4" x1="1360.29" y1="92.37" x2="1301.62" y2="151.73"/><path class="cls-4" d="M354.88,429.53a12,12,0,0,0,9.73-5,12,12,0,0,0-19.22.3A12,12,0,0,0,354.88,429.53Z"/><path class="cls-4" d="M338.87,428.25a8,8,0,0,0,6.52-3.33,8,8,0,0,0-6.36-3.11"/><path class="cls-4" d="M445.47,394.75a12,12,0,0,0,9.73-5,12,12,0,0,0-19.22.31A12,12,0,0,0,445.47,394.75Z"/><path class="cls-4" d="M429.46,393.47a8.06,8.06,0,0,0,6.52-3.32,8.06,8.06,0,0,0-6.36-3.12"/><path class="cls-4" d="M608.64,433.48a24.79,24.79,0,0,0,20.09-10.24,24.83,24.83,0,0,0-39.71.63A24.79,24.79,0,0,0,608.64,433.48Z"/><path class="cls-4" d="M575.57,430.84A16.61,16.61,0,0,0,589,424a16.57,16.57,0,0,0-13.13-6.44"/><path class="cls-4" d="M725.68,393.9a12,12,0,0,0,9.73-5,12,12,0,0,0-19.23.31A12,12,0,0,0,725.68,393.9Z"/><path class="cls-4" d="M709.67,392.61a8,8,0,0,0,6.51-3.32,8,8,0,0,0-6.35-3.11"/><path class="cls-4" d="M845.61,435.77a36.7,36.7,0,0,0,29.75-15.17,36.75,36.75,0,0,0-58.8.94A36.71,36.71,0,0,0,845.61,435.77Z"/><path class="cls-4" d="M796.64,431.85a24.55,24.55,0,0,0,19.92-10.16,24.57,24.57,0,0,0-19.44-9.53"/><path class="cls-4" d="M1033.2,399.56a12,12,0,0,0,9.73-5,12,12,0,0,0-19.22.31A12,12,0,0,0,1033.2,399.56Z"/><path class="cls-4" d="M1017.19,398.28a8.06,8.06,0,0,0,6.52-3.32,8,8,0,0,0-6.36-3.12"/><rect class="cls-2" x="550.12" y="222.51" width="41.18" height="13.43"/><rect class="cls-2" x="874.95" y="222.84" width="41.18" height="13.43"/><line class="cls-1" x1="558.36" y1="250.01" x2="558.36" y2="272.34"/><line class="cls-1" x1="583.07" y1="272.34" x2="583.07" y2="250.01"/><rect class="cls-2" x="550.12" y="236.59" width="41.18" height="13.43"/><rect class="cls-1" x="553.94" y="272.34" width="32.72" height="5.46"/><polyline class="cls-5" points="503.57 381.25 512.15 389.82 520.7 381.27"/><line class="cls-1" x1="883.19" y1="250.01" x2="883.19" y2="272.34"/><line class="cls-1" x1="907.9" y1="272.34" x2="907.9" y2="250.01"/><rect class="cls-2" x="874.95" y="236.59" width="41.18" height="13.43"/><rect class="cls-1" x="878.77" y="272.34" width="32.72" height="5.46"/><line class="cls-6" x1="555.89" y1="222.51" x2="555.89" y2="235.94"/><line class="cls-6" x1="560.83" y1="222.51" x2="560.83" y2="235.94"/><line class="cls-6" x1="565.77" y1="222.51" x2="565.77" y2="235.94"/><line class="cls-6" x1="570.71" y1="222.51" x2="570.71" y2="235.94"/><line class="cls-6" x1="575.65" y1="222.51" x2="575.65" y2="235.94"/><line class="cls-6" x1="580.59" y1="222.51" x2="580.59" y2="235.94"/><line class="cls-6" x1="585.54" y1="222.51" x2="585.54" y2="235.94"/><line class="cls-6" x1="880.72" y1="222.82" x2="880.72" y2="236.24"/><line class="cls-6" x1="885.66" y1="222.82" x2="885.66" y2="236.24"/><line class="cls-6" x1="890.6" y1="222.82" x2="890.6" y2="236.24"/><line class="cls-6" x1="895.54" y1="222.82" x2="895.54" y2="236.24"/><line class="cls-6" x1="900.49" y1="222.82" x2="900.49" y2="236.24"/><line class="cls-6" x1="905.43" y1="222.82" x2="905.43" y2="236.24"/><line class="cls-6" x1="910.37" y1="222.82" x2="910.37" y2="236.24"/><path class="cls-7" d="M923.11,117.74H920a23.52,23.52,0,0,0-23.51,23.52v80.23"/><path class="cls-7" d="M543.91,118.15h7.22a19.39,19.39,0,0,1,19.4,19.39v84.35"/><circle class="cls-8" cx="543.47" cy="118.41" r="4.44"/><circle class="cls-8" cx="923.11" cy="117.74" r="4.44"/><path class="cls-7" d="M565.93,286.27v4.53a24.47,24.47,0,0,1-24.47,24.46H536.6a24.46,24.46,0,0,0-24.46,24.46v43.55"/><polyline class="cls-5" points="958.28 381.25 949.71 389.82 941.16 381.27"/><path class="cls-7" d="M895.93,286.27v4.53a24.46,24.46,0,0,0,24.46,24.46h4.87a24.46,24.46,0,0,1,24.46,24.46v43.55"/></svg>